<?xml version="1.0" encoding="utf-8" standalone="no"?>
<!DOCTYPE svg PUBLIC "-//W3C//DTD SVG 1.1//EN"
  "http://www.w3.org/Graphics/SVG/1.1/DTD/svg11.dtd">
<svg xmlns:xlink="http://www.w3.org/1999/xlink" width="324pt" height="216pt" viewBox="0 0 324 216" xmlns="http://www.w3.org/2000/svg" version="1.1">
 <metadata>
  <rdf:RDF xmlns:dc="http://purl.org/dc/elements/1.1/" xmlns:cc="http://creativecommons.org/ns#" xmlns:rdf="http://www.w3.org/1999/02/22-rdf-syntax-ns#">
   <cc:Work>
    <dc:type rdf:resource="http://purl.org/dc/dcmitype/StillImage"/>
    <dc:description>Analytic ICT transfer functions; z2/z1=1.37.</dc:description>
    <dc:format>image/svg+xml</dc:format>
    <dc:creator>
     <cc:Agent>
      <dc:title>Matplotlib v3.11.1, https://matplotlib.org/</dc:title>
     </cc:Agent>
    </dc:creator>
   </cc:Work>
  </rdf:RDF>
 </metadata>
 <defs>
  <style type="text/css">*{stroke-linejoin: round; stroke-linecap: butt}</style>
 </defs>
 <g id="figure_1">
  <g id="patch_1">
   <path d="M 0 216 
L 324 216 
L 324 0 
L 0 0 
z
" style="fill: #fffff8"/>
  </g>
  <g id="axes_1">
   <g id="patch_2">
    <path d="M 48.6 164.16 
L 272.16 164.16 
L 272.16 32.4 
L 48.6 32.4 
z
" style="fill: #fffff8"/>
   </g>
   <g id="line2d_1">
    <path d="M 48.6 98.28 
L 272.16 98.28 
" clip-path="url(#p2423e0c647)" style="fill: none; stroke: #888888; stroke-width: 0.6; stroke-linecap: square"/>
   </g>
   <g id="matplotlib.axis_1">
    <g id="xtick_1">
     <g id="line2d_2">
      <defs>
       <path id="m0d9c8404da" d="M 0 0 
L 0 -3.5 
" style="stroke: #555555; stroke-width: 0.8"/>
      </defs>
      <g>
       <use xlink:href="#m0d9c8404da" x="48.6" y="164.16" style="fill: #555555; stroke: #555555; stroke-width: 0.8"/>
      </g>
     </g>
     <g id="text_1">
      <!-- 0 -->
      <g style="fill: #555555" transform="translate(45.41875 175.257656) scale(0.1 -0.1)">
       <defs>
        <path id="DejaVuSerif-13" d="M 2034 219 
Q 2513 219 2750 744 
Q 2988 1269 2988 2328 
Q 2988 3391 2750 3916 
Q 2513 4441 2034 4441 
Q 1556 4441 1318 3916 
Q 1081 3391 1081 2328 
Q 1081 1269 1318 744 
Q 1556 219 2034 219 
z
M 2034 -91 
Q 1275 -91 848 546 
Q 422 1184 422 2328 
Q 422 3475 848 4112 
Q 1275 4750 2034 4750 
Q 2797 4750 3222 4112 
Q 3647 3475 3647 2328 
Q 3647 1184 3222 546 
Q 2797 -91 2034 -91 
z
" transform="scale(0.015625)"/>
       </defs>
       <use xlink:href="#DejaVuSerif-13"/>
      </g>
     </g>
    </g>
    <g id="xtick_2">
     <g id="line2d_3">
      <g>
       <use xlink:href="#m0d9c8404da" x="114.352941" y="164.16" style="fill: #555555; stroke: #555555; stroke-width: 0.8"/>
      </g>
     </g>
     <g id="text_2">
      <!-- 0.5 -->
      <g style="fill: #555555" transform="translate(106.401379 175.257656) scale(0.1 -0.1)">
       <defs>
        <path id="DejaVuSerif-11" d="M 603 325 
Q 603 500 722 622 
Q 841 744 1019 744 
Q 1191 744 1312 622 
Q 1434 500 1434 325 
Q 1434 153 1312 31 
Q 1191 -91 1019 -91 
Q 841 -91 722 29 
Q 603 150 603 325 
z
" transform="scale(0.015625)"/>
        <path id="DejaVuSerif-18" d="M 3219 4666 
L 3219 4153 
L 1081 4153 
L 1081 2816 
Q 1244 2928 1461 2984 
Q 1678 3041 1947 3041 
Q 2703 3041 3140 2622 
Q 3578 2203 3578 1478 
Q 3578 738 3136 323 
Q 2694 -91 1894 -91 
Q 1572 -91 1234 -12 
Q 897 66 544 225 
L 544 1131 
L 897 1131 
Q 925 688 1179 453 
Q 1434 219 1894 219 
Q 2388 219 2653 544 
Q 2919 869 2919 1478 
Q 2919 2084 2655 2407 
Q 2391 2731 1894 2731 
Q 1613 2731 1398 2631 
Q 1184 2531 1019 2322 
L 750 2322 
L 750 4666 
L 3219 4666 
z
" transform="scale(0.015625)"/>
       </defs>
       <use xlink:href="#DejaVuSerif-13"/>
       <use xlink:href="#DejaVuSerif-11" transform="translate(63.625 0)"/>
       <use xlink:href="#DejaVuSerif-18" transform="translate(95.40625 0)"/>
      </g>
     </g>
    </g>
    <g id="xtick_3">
     <g id="line2d_4">
      <g>
       <use xlink:href="#m0d9c8404da" x="180.105882" y="164.16" style="fill: #555555; stroke: #555555; stroke-width: 0.8"/>
      </g>
     </g>
     <g id="text_3">
      <!-- 1 -->
      <g style="fill: #555555" transform="translate(176.924632 175.257656) scale(0.1 -0.1)">
       <defs>
        <path id="DejaVuSerif-14" d="M 909 0 
L 909 331 
L 1722 331 
L 1722 4213 
L 781 3603 
L 781 4013 
L 1919 4750 
L 2350 4750 
L 2350 331 
L 3163 331 
L 3163 0 
L 909 0 
z
" transform="scale(0.015625)"/>
       </defs>
       <use xlink:href="#DejaVuSerif-14"/>
      </g>
     </g>
    </g>
    <g id="xtick_4">
     <g id="line2d_5">
      <g>
       <use xlink:href="#m0d9c8404da" x="245.858824" y="164.16" style="fill: #555555; stroke: #555555; stroke-width: 0.8"/>
      </g>
     </g>
     <g id="text_4">
      <!-- 1.5 -->
      <g style="fill: #555555" transform="translate(237.907261 175.257656) scale(0.1 -0.1)">
       <use xlink:href="#DejaVuSerif-14"/>
       <use xlink:href="#DejaVuSerif-11" transform="translate(63.625 0)"/>
       <use xlink:href="#DejaVuSerif-18" transform="translate(95.40625 0)"/>
      </g>
     </g>
    </g>
    <g id="text_5">
     <!-- $u=q\sqrt{\lambda z_1}$ -->
     <g style="fill: #333333" transform="translate(132.385 194.2) scale(0.11 -0.11)">
      <defs>
       <path id="DejaVuSerif-Italic-58" d="M 3097 3322 
L 3672 3322 
L 3091 331 
L 3634 331 
L 3572 0 
L 2453 0 
L 2566 588 
Q 2341 256 2055 82 
Q 1769 -91 1434 -91 
Q 881 -91 681 225 
Q 559 413 559 734 
Q 559 944 613 1209 
L 956 2988 
L 438 2988 
L 503 3322 
L 1600 3322 
L 1225 1388 
Q 1163 1066 1163 853 
Q 1163 663 1213 556 
Q 1316 331 1697 331 
Q 2097 331 2364 625 
Q 2631 919 2738 1478 
L 3097 3322 
z
" transform="scale(0.015625)"/>
       <path id="DejaVuSerif-20" d="M 678 2894 
L 4684 2894 
L 4684 2394 
L 678 2394 
L 678 2894 
z
M 678 1619 
L 4684 1619 
L 4684 1119 
L 678 1119 
L 678 1619 
z
" transform="scale(0.015625)"/>
       <path id="DejaVuSerif-Italic-54" d="M 2684 519 
Q 2469 206 2206 56 
Q 1944 -91 1597 -91 
Q 1047 -91 769 281 
Q 594 516 575 841 
Q 563 1031 606 1256 
Q 822 2359 1588 2928 
Q 2241 3409 3006 3413 
Q 3613 3416 3803 3322 
L 2963 -1000 
L 3516 -1000 
L 3450 -1331 
L 2322 -1331 
L 2684 519 
z
M 2916 3094 
Q 2316 3094 1850 2625 
Q 1388 2153 1219 1297 
Q 1172 1044 1184 853 
Q 1197 659 1275 528 
Q 1428 269 1828 269 
Q 2222 269 2489 583 
Q 2756 897 2872 1497 
L 3166 3003 
Q 3169 3094 2916 3094 
z
" transform="scale(0.015625)"/>
       <path id="STIXSizeOneSym-Regular-26" d="M 6970 9933 
L 3373 -1888 
L 3104 -1888 
L 1626 2918 
Q 1555 3149 1465 3251 
Q 1376 3354 1229 3354 
Q 1011 3354 794 3181 
L 717 3309 
L 1766 4115 
L 1926 4115 
L 3379 -602 
L 3405 -602 
L 6605 9933 
L 6970 9933 
z
" transform="scale(0.015625)"/>
       <path id="DejaVuSerif-Italic-333" d="M 1984 4084 
Q 1925 4372 1834 4466 
Q 1744 4563 1578 4563 
Q 1391 4563 1287 4472 
Q 1178 4378 1119 4166 
L 825 4166 
L 947 4800 
Q 1112 4847 1272 4872 
Q 1431 4897 1578 4897 
Q 1925 4897 2087 4753 
Q 2253 4613 2334 4225 
L 3100 334 
L 3472 334 
L 3406 0 
L 2159 0 
L 2225 334 
L 2722 334 
L 2281 2628 
L 853 334 
L 1384 334 
L 1319 0 
L -210 0 
L -144 334 
L 234 334 
L 2116 3388 
L 1984 4084 
z
" transform="scale(0.015625)"/>
       <path id="DejaVuSerif-Italic-5d" d="M 2550 3047 
Q 2887 3047 3216 3322 
L 3403 3322 
L 3353 3053 
L 1081 684 
Q 1112 675 1203 647 
Q 1309 613 1416 544 
L 1569 450 
Q 1862 272 2075 272 
Q 2484 272 2966 741 
L 2891 363 
Q 2356 -163 1950 -163 
Q 1703 -156 1356 59 
Q 1009 275 791 275 
Q 453 275 125 0 
L -63 0 
L -13 269 
L 2262 2634 
Q 2228 2647 2137 2675 
Q 2031 2709 1925 2778 
L 1772 2872 
Q 1478 3050 1266 3050 
Q 856 3050 375 2581 
L 450 2959 
Q 984 3484 1391 3484 
Q 1637 3478 1984 3262 
Q 2331 3047 2550 3047 
z
" transform="scale(0.015625)"/>
      </defs>
      <use xlink:href="#DejaVuSerif-Italic-58" transform="translate(0 0.249951)"/>
      <use xlink:href="#DejaVuSerif-20" transform="translate(83.369141 0.249951)"/>
      <use xlink:href="#DejaVuSerif-Italic-54" transform="translate(186.123047 0.249951)"/>
      <use xlink:href="#STIXSizeOneSym-Regular-26" transform="translate(250.136719 4.859375) scale(0.664664)"/>
      <use xlink:href="#DejaVuSerif-Italic-333" transform="translate(332.877777 0.234375)"/>
      <use xlink:href="#DejaVuSerif-Italic-5d" transform="translate(396.256683 0.234375)"/>
      <use xlink:href="#DejaVuSerif-14" transform="translate(448.94223 -14.765576) scale(0.7)"/>
      <path d="M 320.377777 107.75 
L 320.377777 114 
L 508.573578 114 
L 508.573578 107.75 
L 320.377777 107.75 
z
"/>
     </g>
    </g>
   </g>
   <g id="matplotlib.axis_2">
    <g id="ytick_1">
     <g id="line2d_6">
      <defs>
       <path id="ma18cc54397" d="M 0 0 
L 3.5 0 
" style="stroke: #555555; stroke-width: 0.8"/>
      </defs>
      <g>
       <use xlink:href="#ma18cc54397" x="48.6" y="157.101429" style="fill: #555555; stroke: #555555; stroke-width: 0.8"/>
      </g>
     </g>
     <g id="text_6">
      <!-- −10 -->
      <g style="fill: #555555" transform="translate(23.995313 160.900257) scale(0.1 -0.1)">
       <defs>
        <path id="DejaVuSerif-8cf" d="M 678 2259 
L 4684 2259 
L 4684 1753 
L 678 1753 
L 678 2259 
z
" transform="scale(0.015625)"/>
       </defs>
       <use xlink:href="#DejaVuSerif-8cf"/>
       <use xlink:href="#DejaVuSerif-14" transform="translate(83.796875 0)"/>
       <use xlink:href="#DejaVuSerif-13" transform="translate(147.421875 0)"/>
      </g>
     </g>
    </g>
    <g id="ytick_2">
     <g id="line2d_7">
      <g>
       <use xlink:href="#ma18cc54397" x="48.6" y="98.28" style="fill: #555555; stroke: #555555; stroke-width: 0.8"/>
      </g>
     </g>
     <g id="text_7">
      <!-- 0 -->
      <g style="fill: #555555" transform="translate(38.7375 102.078828) scale(0.1 -0.1)">
       <use xlink:href="#DejaVuSerif-13"/>
      </g>
     </g>
    </g>
    <g id="ytick_3">
     <g id="line2d_8">
      <g>
       <use xlink:href="#ma18cc54397" x="48.6" y="39.458571" style="fill: #555555; stroke: #555555; stroke-width: 0.8"/>
      </g>
     </g>
     <g id="text_8">
      <!-- 10 -->
      <g style="fill: #555555" transform="translate(32.375 43.2574) scale(0.1 -0.1)">
       <use xlink:href="#DejaVuSerif-14"/>
       <use xlink:href="#DejaVuSerif-13" transform="translate(63.625 0)"/>
      </g>
     </g>
    </g>
    <g id="text_9">
     <!-- $D_z$ -->
     <g style="fill: #333333" transform="translate(20.352734 104.88) rotate(-90) scale(0.11 -0.11)">
      <defs>
       <path id="DejaVuSerif-Italic-27" d="M 1194 331 
L 1775 331 
Q 2684 331 3271 850 
Q 3859 1369 4048 2337 
Q 4237 3306 3851 3818 
Q 3466 4331 2553 4331 
L 1972 4331 
L 1194 331 
z
M -97 0 
L -35 331 
L 559 331 
L 1337 4331 
L 744 4331 
L 809 4666 
L 2666 4666 
Q 3872 4666 4426 4050 
Q 4981 3434 4766 2338 
Q 4553 1238 3757 619 
Q 2962 0 1759 0 
L -97 0 
z
" transform="scale(0.015625)"/>
      </defs>
      <use xlink:href="#DejaVuSerif-Italic-27" transform="translate(0 0.09375)"/>
      <use xlink:href="#DejaVuSerif-Italic-5d" transform="translate(80.175781 -14.906201) scale(0.7)"/>
     </g>
    </g>
   </g>
   <g id="line2d_9">
    <path d="M 48.6 92.397857 
L 51.830995 92.286318 
L 55.06199 91.951833 
L 58.292985 91.394817 
L 61.52398 90.616046 
L 64.879244 89.57396 
L 68.234508 88.296231 
L 71.714041 86.72567 
L 75.193574 84.910121 
L 78.797376 82.778965 
L 82.525447 80.317029 
L 86.502057 77.420232 
L 90.727204 74.064123 
L 95.449427 70.02248 
L 101.165803 64.822022 
L 117.196509 50.041988 
L 121.048849 46.909386 
L 124.279844 44.563454 
L 127.138032 42.761498 
L 129.623413 41.44404 
L 131.984525 40.439961 
L 134.097098 39.770586 
L 136.085403 39.357854 
L 138.073708 39.173578 
L 139.937743 39.22342 
L 141.801779 39.502491 
L 143.541545 39.981112 
L 145.281312 40.680391 
L 147.021078 41.609329 
L 148.885114 42.868629 
L 150.74915 44.409391 
L 152.613185 46.238543 
L 154.60149 48.51318 
L 156.589794 51.125205 
L 158.702368 54.270674 
L 160.939211 58.012927 
L 163.300322 62.41169 
L 165.785703 67.518697 
L 168.519622 73.662454 
L 171.502079 80.925469 
L 174.981612 90.007963 
L 179.579566 102.68424 
L 188.029861 126.083884 
L 191.260856 134.301759 
L 193.870506 140.344862 
L 196.107349 144.977181 
L 198.095653 148.589855 
L 199.83542 151.308537 
L 201.450917 153.425871 
L 202.942146 155.005139 
L 204.309105 156.116819 
L 205.551795 156.834998 
L 206.670217 157.234216 
L 207.788638 157.392265 
L 208.907059 157.303308 
L 210.025481 156.962497 
L 211.143902 156.366048 
L 212.262324 155.51131 
L 213.505014 154.256949 
L 214.747704 152.681794 
L 216.114664 150.58089 
L 217.605892 147.855383 
L 219.22139 144.405245 
L 220.961156 140.134525 
L 222.825192 134.95844 
L 224.937765 128.408724 
L 227.298877 120.344764 
L 230.157065 109.761211 
L 234.506481 92.679747 
L 239.477243 73.362562 
L 242.211162 63.641155 
L 244.323735 56.896237 
L 246.187771 51.657245 
L 247.803268 47.750414 
L 249.294497 44.729421 
L 250.537187 42.677838 
L 251.655609 41.216079 
L 252.649761 40.236374 
L 253.643913 39.567807 
L 254.513797 39.244598 
L 255.38368 39.170487 
L 256.253563 39.348963 
L 257.123446 39.782446 
L 257.99333 40.472242 
L 258.987482 41.574581 
L 259.981634 43.010199 
L 261.100056 45.018904 
L 262.342746 47.7294 
L 263.709705 51.27324 
L 265.200934 55.776917 
L 266.9407 61.807808 
L 268.804736 69.09247 
L 271.041579 78.759937 
L 272.16 83.889347 
L 272.16 83.889347 
" clip-path="url(#p2423e0c647)" style="fill: none; stroke: #666666; stroke-width: 1.55; stroke-linecap: square"/>
   </g>
   <g id="line2d_10">
    <defs>
     <path id="m546ffeaf07" d="M 0 2 
C 0.530406 2 1.03916 1.789267 1.414214 1.414214 
C 1.789267 1.03916 2 0.530406 2 0 
C 2 -0.530406 1.789267 -1.03916 1.414214 -1.414214 
C 1.03916 -1.789267 0.530406 -2 0 -2 
C -0.530406 -2 -1.03916 -1.789267 -1.414214 -1.414214 
C -1.789267 -1.03916 -2 -0.530406 -2 0 
C -2 0.530406 -1.789267 1.03916 -1.414214 1.414214 
C -1.03916 1.789267 -0.530406 2 0 2 
z
" style="stroke: #666666"/>
    </defs>
    <g>
     <use xlink:href="#m546ffeaf07" x="178.003023" y="98.28" style="fill: #fffff8; stroke: #666666"/>
     <use xlink:href="#m546ffeaf07" x="233.096449" y="98.28" style="fill: #fffff8; stroke: #666666"/>
    </g>
   </g>
   <g id="line2d_11">
    <path d="M 48.6 92.397857 
L 51.333919 92.28845 
L 54.067838 91.960354 
L 56.801757 91.41397 
L 59.659944 90.610165 
L 62.518132 89.569977 
L 65.37632 88.295537 
L 68.358777 86.719332 
L 71.465503 84.815361 
L 74.572229 82.651941 
L 77.927493 80.036886 
L 81.407026 77.039244 
L 85.259366 73.414889 
L 89.608783 68.999128 
L 95.07662 63.107143 
L 106.012296 51.248126 
L 109.616098 47.716374 
L 112.598555 45.096216 
L 115.208205 43.100894 
L 117.445047 41.659919 
L 119.557621 40.56496 
L 121.421656 39.840959 
L 123.161423 39.391528 
L 124.776921 39.186629 
L 126.392418 39.201349 
L 128.007916 39.449871 
L 129.499144 39.898494 
L 130.990372 40.567838 
L 132.481601 41.467112 
L 134.097098 42.710396 
L 135.712596 44.242379 
L 137.452362 46.223546 
L 139.192129 48.554855 
L 141.056165 51.445454 
L 142.9202 54.742672 
L 144.908505 58.702744 
L 147.021078 63.397867 
L 149.38219 69.210462 
L 151.99184 76.271376 
L 154.850028 84.667077 
L 158.329561 95.601022 
L 170.01085 132.946074 
L 172.496231 139.785478 
L 174.484536 144.658388 
L 176.224302 148.394665 
L 177.8398 151.359957 
L 179.206759 153.449933 
L 180.44945 154.989888 
L 181.567871 156.065002 
L 182.686292 156.831376 
L 183.680445 157.243431 
L 184.550328 157.389883 
L 185.420211 157.331864 
L 186.290094 157.065637 
L 187.284247 156.502598 
L 188.278399 155.660439 
L 189.272551 154.537285 
L 190.390973 152.937412 
L 191.633663 150.744338 
L 193.000623 147.834209 
L 194.491851 144.081009 
L 196.107349 139.364167 
L 197.847115 133.579088 
L 199.83542 126.164852 
L 202.196531 116.431668 
L 205.178988 103.114331 
L 212.883669 68.223113 
L 215.120511 59.41008 
L 216.860278 53.384241 
L 218.351506 48.925423 
L 219.718466 45.492172 
L 220.961156 42.968465 
L 222.079578 41.219461 
L 222.949461 40.218961 
L 223.819344 39.54501 
L 224.564958 39.233999 
L 225.310573 39.173932 
L 226.056187 39.368274 
L 226.801801 39.819401 
L 227.547415 40.52856 
L 228.417298 41.682077 
L 229.411451 43.427909 
L 230.405603 45.623359 
L 231.524024 48.617371 
L 232.766715 52.569695 
L 234.257943 58.128346 
L 235.873441 65.05986 
L 237.737476 74.06029 
L 240.098588 86.624779 
L 248.673152 133.447668 
L 250.412918 141.143218 
L 251.904147 146.757398 
L 253.146837 150.628244 
L 254.265258 153.416329 
L 255.259411 155.300901 
L 256.129294 156.468246 
L 256.874908 157.098728 
L 257.496253 157.357313 
L 258.117599 157.369801 
L 258.738944 157.133938 
L 259.360289 156.648514 
L 260.105903 155.736461 
L 260.851518 154.466729 
L 261.721401 152.538968 
L 262.715553 149.760505 
L 263.833974 145.929019 
L 265.076665 140.847375 
L 266.567893 133.71016 
L 268.30766 124.161851 
L 270.420233 111.24038 
L 272.16 99.946472 
L 272.16 99.946472 
" clip-path="url(#p2423e0c647)" style="fill: none; stroke-dasharray: 6.2,3.1; stroke-dashoffset: 0; stroke: #326899; stroke-width: 1.55"/>
   </g>
   <g id="line2d_12">
    <defs>
     <path id="me8facdae51" d="M -2 2 
L 2 2 
L 2 -2 
L -2 -2 
z
" style="stroke: #326899; stroke-linejoin: miter"/>
    </defs>
    <g>
     <use xlink:href="#me8facdae51" x="159.156464" y="98.28" style="fill: #fffff8; stroke: #326899; stroke-linejoin: miter"/>
     <use xlink:href="#me8facdae51" x="206.225954" y="98.28" style="fill: #fffff8; stroke: #326899; stroke-linejoin: miter"/>
     <use xlink:href="#me8facdae51" x="242.169499" y="98.28" style="fill: #fffff8; stroke: #326899; stroke-linejoin: miter"/>
    </g>
   </g>
   <g id="patch_3">
    <path d="M 48.6 157.394676 
L 48.6 39.165208 
" style="fill: none; stroke: #888888; stroke-width: 0.65; stroke-linejoin: miter; stroke-linecap: square"/>
   </g>
   <g id="patch_4">
    <path d="M 48.6 164.16 
L 272.16 164.16 
" style="fill: none; stroke: #888888; stroke-width: 0.65; stroke-linejoin: miter; stroke-linecap: square"/>
   </g>
   <g id="text_10">
    <!-- $z_1$ -->
    <g style="fill: #666666" transform="translate(278.16 87.006534) scale(0.12 -0.12)">
     <use xlink:href="#DejaVuSerif-Italic-5d" transform="translate(0 0.5625)"/>
     <use xlink:href="#DejaVuSerif-14" transform="translate(52.685547 -14.437451) scale(0.7)"/>
    </g>
   </g>
   <g id="text_11">
    <!-- $z_2$ -->
    <g style="fill: #326899" transform="translate(278.16 103.063659) scale(0.12 -0.12)">
     <defs>
      <path id="DejaVuSerif-15" d="M 819 3553 
L 469 3553 
L 469 4384 
Q 803 4563 1142 4656 
Q 1481 4750 1806 4750 
Q 2534 4750 2956 4397 
Q 3378 4044 3378 3438 
Q 3378 2753 2422 1800 
Q 2347 1728 2309 1691 
L 1131 513 
L 3078 513 
L 3078 1088 
L 3444 1088 
L 3444 0 
L 434 0 
L 434 341 
L 1850 1753 
Q 2319 2222 2519 2614 
Q 2719 3006 2719 3438 
Q 2719 3909 2473 4175 
Q 2228 4441 1797 4441 
Q 1350 4441 1106 4219 
Q 863 3997 819 3553 
z
" transform="scale(0.015625)"/>
     </defs>
     <use xlink:href="#DejaVuSerif-Italic-5d" transform="translate(0 0.5625)"/>
     <use xlink:href="#DejaVuSerif-15" transform="translate(52.685547 -14.437451) scale(0.7)"/>
    </g>
   </g>
   <g id="text_12">
    <!-- Repeated zeros shift with distance -->
    <g style="fill: #222222" transform="translate(63.975313 20.4) scale(0.11 -0.11)">
     <defs>
      <path id="DejaVuSerif-35" d="M 3066 2316 
Q 3284 2256 3442 2114 
Q 3600 1972 3725 1716 
L 4403 331 
L 4972 331 
L 4972 0 
L 3872 0 
L 3144 1484 
Q 2934 1916 2759 2042 
Q 2584 2169 2278 2169 
L 1581 2169 
L 1581 331 
L 2241 331 
L 2241 0 
L 353 0 
L 353 331 
L 947 331 
L 947 4331 
L 353 4331 
L 353 4666 
L 2719 4666 
Q 3400 4666 3770 4341 
Q 4141 4016 4141 3419 
Q 4141 2938 3870 2661 
Q 3600 2384 3066 2316 
z
M 1581 2503 
L 2503 2503 
Q 2975 2503 3200 2726 
Q 3425 2950 3425 3419 
Q 3425 3888 3200 4109 
Q 2975 4331 2503 4331 
L 1581 4331 
L 1581 2503 
z
" transform="scale(0.015625)"/>
      <path id="DejaVuSerif-48" d="M 3469 1600 
L 991 1600 
L 991 1575 
Q 991 903 1244 561 
Q 1497 219 1991 219 
Q 2369 219 2611 417 
Q 2853 616 2950 1006 
L 3413 1006 
Q 3275 459 2904 184 
Q 2534 -91 1931 -91 
Q 1203 -91 761 389 
Q 319 869 319 1663 
Q 319 2450 753 2931 
Q 1188 3413 1894 3413 
Q 2647 3413 3050 2948 
Q 3453 2484 3469 1600 
z
M 2791 1931 
Q 2772 2513 2545 2808 
Q 2319 3103 1894 3103 
Q 1497 3103 1269 2806 
Q 1041 2509 991 1931 
L 2791 1931 
z
" transform="scale(0.015625)"/>
      <path id="DejaVuSerif-53" d="M 1313 1825 
L 1313 1497 
Q 1313 897 1542 583 
Q 1772 269 2209 269 
Q 2650 269 2876 622 
Q 3103 975 3103 1663 
Q 3103 2353 2876 2703 
Q 2650 3053 2209 3053 
Q 1772 3053 1542 2737 
Q 1313 2422 1313 1825 
z
M 738 2988 
L 184 2988 
L 184 3322 
L 1313 3322 
L 1313 2803 
Q 1481 3116 1742 3264 
Q 2003 3413 2388 3413 
Q 3000 3413 3387 2928 
Q 3775 2444 3775 1663 
Q 3775 881 3387 395 
Q 3000 -91 2388 -91 
Q 2003 -91 1742 57 
Q 1481 206 1313 519 
L 1313 -997 
L 1856 -997 
L 1856 -1331 
L 184 -1331 
L 184 -997 
L 738 -997 
L 738 2988 
z
" transform="scale(0.015625)"/>
      <path id="DejaVuSerif-44" d="M 2547 1044 
L 2547 1747 
L 1806 1747 
Q 1378 1747 1168 1562 
Q 959 1378 959 997 
Q 959 650 1171 447 
Q 1384 244 1747 244 
Q 2106 244 2326 466 
Q 2547 688 2547 1044 
z
M 3122 2075 
L 3122 331 
L 3634 331 
L 3634 0 
L 2547 0 
L 2547 359 
Q 2356 128 2106 18 
Q 1856 -91 1522 -91 
Q 969 -91 644 203 
Q 319 497 319 997 
Q 319 1513 691 1797 
Q 1063 2081 1741 2081 
L 2547 2081 
L 2547 2309 
Q 2547 2688 2317 2895 
Q 2088 3103 1672 3103 
Q 1328 3103 1125 2947 
Q 922 2791 872 2484 
L 575 2484 
L 575 3156 
Q 875 3284 1158 3348 
Q 1441 3413 1709 3413 
Q 2400 3413 2761 3070 
Q 3122 2728 3122 2075 
z
" transform="scale(0.015625)"/>
      <path id="DejaVuSerif-57" d="M 691 2988 
L 184 2988 
L 184 3322 
L 691 3322 
L 691 4353 
L 1269 4353 
L 1269 3322 
L 2350 3322 
L 2350 2988 
L 1269 2988 
L 1269 878 
Q 1269 456 1350 337 
Q 1431 219 1650 219 
Q 1875 219 1978 351 
Q 2081 484 2088 781 
L 2522 781 
Q 2497 328 2275 118 
Q 2053 -91 1600 -91 
Q 1103 -91 897 129 
Q 691 350 691 878 
L 691 2988 
z
" transform="scale(0.015625)"/>
      <path id="DejaVuSerif-47" d="M 3359 331 
L 3909 331 
L 3909 0 
L 2784 0 
L 2784 519 
Q 2616 206 2355 57 
Q 2094 -91 1709 -91 
Q 1097 -91 708 395 
Q 319 881 319 1663 
Q 319 2444 706 2928 
Q 1094 3413 1709 3413 
Q 2094 3413 2355 3264 
Q 2616 3116 2784 2803 
L 2784 4531 
L 2241 4531 
L 2241 4863 
L 3359 4863 
L 3359 331 
z
M 2784 1497 
L 2784 1825 
Q 2784 2422 2554 2737 
Q 2325 3053 1888 3053 
Q 1444 3053 1217 2703 
Q 991 2353 991 1663 
Q 991 975 1217 622 
Q 1444 269 1888 269 
Q 2325 269 2554 583 
Q 2784 897 2784 1497 
z
" transform="scale(0.015625)"/>
      <path id="DejaVuSerif-3" transform="scale(0.015625)"/>
      <path id="DejaVuSerif-5d" d="M 256 0 
L 256 269 
L 2338 2988 
L 691 2988 
L 691 2413 
L 359 2413 
L 359 3322 
L 3078 3322 
L 3078 3053 
L 997 331 
L 2803 331 
L 2803 934 
L 3138 934 
L 3138 0 
L 256 0 
z
" transform="scale(0.015625)"/>
      <path id="DejaVuSerif-55" d="M 3059 3328 
L 3059 2497 
L 2728 2497 
Q 2713 2744 2591 2866 
Q 2469 2988 2234 2988 
Q 1809 2988 1582 2694 
Q 1356 2400 1356 1850 
L 1356 331 
L 2022 331 
L 2022 0 
L 263 0 
L 263 331 
L 781 331 
L 781 2994 
L 231 2994 
L 231 3322 
L 1356 3322 
L 1356 2731 
Q 1525 3078 1790 3245 
Q 2056 3413 2438 3413 
Q 2578 3413 2733 3391 
Q 2888 3369 3059 3328 
z
" transform="scale(0.015625)"/>
      <path id="DejaVuSerif-52" d="M 1925 219 
Q 2388 219 2623 584 
Q 2859 950 2859 1663 
Q 2859 2375 2623 2739 
Q 2388 3103 1925 3103 
Q 1463 3103 1227 2739 
Q 991 2375 991 1663 
Q 991 950 1228 584 
Q 1466 219 1925 219 
z
M 1925 -91 
Q 1200 -91 759 389 
Q 319 869 319 1663 
Q 319 2456 758 2934 
Q 1197 3413 1925 3413 
Q 2653 3413 3092 2934 
Q 3531 2456 3531 1663 
Q 3531 869 3092 389 
Q 2653 -91 1925 -91 
z
" transform="scale(0.015625)"/>
      <path id="DejaVuSerif-56" d="M 359 184 
L 359 959 
L 691 959 
Q 703 588 923 403 
Q 1144 219 1575 219 
Q 1963 219 2166 364 
Q 2369 509 2369 788 
Q 2369 1006 2220 1140 
Q 2072 1275 1594 1428 
L 1178 1569 
Q 750 1706 558 1912 
Q 366 2119 366 2438 
Q 366 2894 700 3153 
Q 1034 3413 1625 3413 
Q 1888 3413 2178 3344 
Q 2469 3275 2778 3144 
L 2778 2419 
L 2447 2419 
Q 2434 2741 2221 2922 
Q 2009 3103 1644 3103 
Q 1281 3103 1095 2975 
Q 909 2847 909 2591 
Q 909 2381 1050 2254 
Q 1191 2128 1613 1997 
L 2069 1856 
Q 2541 1709 2748 1489 
Q 2956 1269 2956 922 
Q 2956 450 2595 179 
Q 2234 -91 1600 -91 
Q 1278 -91 972 -22 
Q 666 47 359 184 
z
" transform="scale(0.015625)"/>
      <path id="DejaVuSerif-4b" d="M 263 0 
L 263 331 
L 781 331 
L 781 4531 
L 231 4531 
L 231 4863 
L 1356 4863 
L 1356 2731 
Q 1516 3069 1770 3241 
Q 2025 3413 2363 3413 
Q 2913 3413 3172 3097 
Q 3431 2781 3431 2113 
L 3431 331 
L 3944 331 
L 3944 0 
L 2356 0 
L 2356 331 
L 2853 331 
L 2853 1931 
Q 2853 2541 2704 2764 
Q 2556 2988 2175 2988 
Q 1775 2988 1565 2697 
Q 1356 2406 1356 1850 
L 1356 331 
L 1856 331 
L 1856 0 
L 263 0 
z
" transform="scale(0.015625)"/>
      <path id="DejaVuSerif-4c" d="M 622 4353 
Q 622 4497 726 4603 
Q 831 4709 978 4709 
Q 1122 4709 1226 4603 
Q 1331 4497 1331 4353 
Q 1331 4206 1228 4103 
Q 1125 4000 978 4000 
Q 831 4000 726 4103 
Q 622 4206 622 4353 
z
M 1356 331 
L 1900 331 
L 1900 0 
L 231 0 
L 231 331 
L 781 331 
L 781 2988 
L 231 2988 
L 231 3322 
L 1356 3322 
L 1356 331 
z
" transform="scale(0.015625)"/>
      <path id="DejaVuSerif-49" d="M 2753 4078 
L 2450 4078 
Q 2447 4313 2317 4434 
Q 2188 4556 1941 4556 
Q 1619 4556 1487 4379 
Q 1356 4203 1356 3750 
L 1356 3322 
L 2284 3322 
L 2284 2988 
L 1356 2988 
L 1356 331 
L 2094 331 
L 2094 0 
L 231 0 
L 231 331 
L 781 331 
L 781 2988 
L 231 2988 
L 231 3322 
L 781 3322 
L 781 3738 
Q 781 4294 1070 4578 
Q 1359 4863 1919 4863 
Q 2128 4863 2337 4825 
Q 2547 4788 2753 4709 
L 2753 4078 
z
" transform="scale(0.015625)"/>
      <path id="DejaVuSerif-5a" d="M 3072 3322 
L 3922 728 
L 4672 2988 
L 4191 2988 
L 4191 3322 
L 5394 3322 
L 5394 2988 
L 5025 2988 
L 4038 0 
L 3559 0 
L 2741 2484 
L 1919 0 
L 1459 0 
L 475 2988 
L 103 2988 
L 103 3322 
L 1606 3322 
L 1606 2988 
L 1069 2988 
L 1813 728 
L 2669 3322 
L 3072 3322 
z
" transform="scale(0.015625)"/>
      <path id="DejaVuSerif-51" d="M 263 0 
L 263 331 
L 781 331 
L 781 2988 
L 231 2988 
L 231 3322 
L 1356 3322 
L 1356 2731 
Q 1516 3069 1770 3241 
Q 2025 3413 2363 3413 
Q 2913 3413 3172 3097 
Q 3431 2781 3431 2113 
L 3431 331 
L 3944 331 
L 3944 0 
L 2356 0 
L 2356 331 
L 2853 331 
L 2853 1931 
Q 2853 2541 2703 2767 
Q 2553 2994 2175 2994 
Q 1775 2994 1565 2701 
Q 1356 2409 1356 1850 
L 1356 331 
L 1856 331 
L 1856 0 
L 263 0 
z
" transform="scale(0.015625)"/>
      <path id="DejaVuSerif-46" d="M 3291 997 
Q 3169 466 2822 187 
Q 2475 -91 1925 -91 
Q 1200 -91 759 389 
Q 319 869 319 1663 
Q 319 2459 759 2936 
Q 1200 3413 1925 3413 
Q 2241 3413 2553 3339 
Q 2866 3266 3181 3116 
L 3181 2266 
L 2847 2266 
Q 2781 2703 2561 2903 
Q 2341 3103 1931 3103 
Q 1466 3103 1228 2742 
Q 991 2381 991 1663 
Q 991 944 1227 581 
Q 1463 219 1931 219 
Q 2303 219 2525 412 
Q 2747 606 2828 997 
L 3291 997 
z
" transform="scale(0.015625)"/>
     </defs>
     <use xlink:href="#DejaVuSerif-35"/>
     <use xlink:href="#DejaVuSerif-48" transform="translate(75.296875 0)"/>
     <use xlink:href="#DejaVuSerif-53" transform="translate(134.484375 0)"/>
     <use xlink:href="#DejaVuSerif-48" transform="translate(198.5 0)"/>
     <use xlink:href="#DejaVuSerif-44" transform="translate(257.6875 0)"/>
     <use xlink:href="#DejaVuSerif-57" transform="translate(317.3125 0)"/>
     <use xlink:href="#DejaVuSerif-48" transform="translate(357.5 0)"/>
     <use xlink:href="#DejaVuSerif-47" transform="translate(416.6875 0)"/>
     <use xlink:href="#DejaVuSerif-3" transform="translate(480.703125 0)"/>
     <use xlink:href="#DejaVuSerif-5d" transform="translate(512.484375 0)"/>
     <use xlink:href="#DejaVuSerif-48" transform="translate(565.171875 0)"/>
     <use xlink:href="#DejaVuSerif-55" transform="translate(624.359375 0)"/>
     <use xlink:href="#DejaVuSerif-52" transform="translate(672.15625 0)"/>
     <use xlink:href="#DejaVuSerif-56" transform="translate(732.359375 0)"/>
     <use xlink:href="#DejaVuSerif-3" transform="translate(783.671875 0)"/>
     <use xlink:href="#DejaVuSerif-56" transform="translate(815.453125 0)"/>
     <use xlink:href="#DejaVuSerif-4b" transform="translate(866.765625 0)"/>
     <use xlink:href="#DejaVuSerif-4c" transform="translate(931.171875 0)"/>
     <use xlink:href="#DejaVuSerif-49" transform="translate(963.15625 0)"/>
     <use xlink:href="#DejaVuSerif-57" transform="translate(1000.171875 0)"/>
     <use xlink:href="#DejaVuSerif-3" transform="translate(1040.359375 0)"/>
     <use xlink:href="#DejaVuSerif-5a" transform="translate(1072.140625 0)"/>
     <use xlink:href="#DejaVuSerif-4c" transform="translate(1157.734375 0)"/>
     <use xlink:href="#DejaVuSerif-57" transform="translate(1189.71875 0)"/>
     <use xlink:href="#DejaVuSerif-4b" transform="translate(1229.90625 0)"/>
     <use xlink:href="#DejaVuSerif-3" transform="translate(1294.3125 0)"/>
     <use xlink:href="#DejaVuSerif-47" transform="translate(1326.09375 0)"/>
     <use xlink:href="#DejaVuSerif-4c" transform="translate(1390.109375 0)"/>
     <use xlink:href="#DejaVuSerif-56" transform="translate(1422.09375 0)"/>
     <use xlink:href="#DejaVuSerif-57" transform="translate(1473.40625 0)"/>
     <use xlink:href="#DejaVuSerif-44" transform="translate(1513.59375 0)"/>
     <use xlink:href="#DejaVuSerif-51" transform="translate(1573.21875 0)"/>
     <use xlink:href="#DejaVuSerif-46" transform="translate(1637.625 0)"/>
     <use xlink:href="#DejaVuSerif-48" transform="translate(1693.625 0)"/>
    </g>
   </g>
  </g>
 </g>
 <defs>
  <clipPath id="p2423e0c647">
   <rect x="48.6" y="32.4" width="223.56" height="131.76"/>
  </clipPath>
 </defs>
</svg>
